<?xml version="1.0" encoding="utf-8"?>
<!-- Generator: Adobe Illustrator 20.1.0, SVG Export Plug-In . SVG Version: 6.00 Build 0)  -->
<svg version="1.1" id="Capa_1" xmlns="http://www.w3.org/2000/svg" xmlns:xlink="http://www.w3.org/1999/xlink" x="0px" y="0px"
	 viewBox="0 0 512 512" style="enable-background:new 0 0 512 512;" xml:space="preserve">
<style type="text/css">
	.st0{fill:#D6D6D6;}
</style>
<g>
	<path class="st0" d="M211,310.1h18.3c2.5,0,4.6-0.9,6.4-2.7s2.7-3.9,2.7-6.4v-64h64c2.5,0,4.6-0.9,6.4-2.7c1.8-1.8,2.7-3.9,2.7-6.4
		v-18.3c0-2.5-0.9-4.6-2.7-6.4c-1.8-1.8-3.9-2.7-6.4-2.7h-64v-64c0-2.5-0.9-4.6-2.7-6.4s-3.9-2.7-6.4-2.7H211
		c-2.5,0-4.6,0.9-6.4,2.7c-1.8,1.8-2.7,3.9-2.7,6.4v64h-64c-2.5,0-4.6,0.9-6.4,2.7c-1.8,1.8-2.7,3.9-2.7,6.4v18.3
		c0,2.5,0.9,4.6,2.7,6.4c1.8,1.8,3.9,2.7,6.4,2.7h64v64c0,2.5,0.9,4.6,2.7,6.4C206.4,309.2,208.5,310.1,211,310.1z M220.1,346.7
		c-35.2,0-65.4-12.5-90.4-37.6s-37.6-55.2-37.6-90.4s12.5-65.4,37.6-90.4s55.2-37.6,90.4-37.6s65.4,12.5,90.4,37.6
		s37.6,55.2,37.6,90.4s-12.5,65.4-37.6,90.4C285.5,334.2,255.4,346.7,220.1,346.7z M457.9,493c10.1,0,18.7-3.6,25.9-10.7
		c7.1-7.1,10.7-15.8,10.7-25.9c0-10.3-3.6-18.9-10.9-25.7l-97.7-98c23.6-34.1,35.4-72.1,35.4-114c0-27.2-5.3-53.3-15.9-78.1
		s-24.9-46.3-42.9-64.3S323.1,44,298.3,33.4s-50.9-15.9-78.1-15.9s-53.3,5.3-78.1,15.9S95.7,58.3,77.7,76.3s-32.3,39.4-42.9,64.3
		S19,191.5,19,218.7s5.3,53.3,15.9,78.1c10.6,24.9,24.9,46.3,42.9,64.3s39.4,32.3,64.3,42.9c24.9,10.6,50.9,15.9,78.1,15.9
		c41.9,0,79.9-11.8,114-35.4l98,98C439.2,489.5,447.8,493,457.9,493z"/>
</g>
</svg>
